{"title":"Inventing the Abbotts 1997 480p HDRip XviD titler","uid":9772800,"size":1288131782,"categoryP":"video","categoryS":"movies","magnet":"?xt=urn:btih:79ce05afb1ae0252cec746b86b1a3411563d4d45&amp;dn=Inventing+the+Abbotts+1997+480p+HDRip+XviD+titler&amp;tr=udp%3A%2F%2Ftracker.openbittorrent.com%3A80&amp;tr=udp%3A%2F%2Fopen.demonii.com%3A1337&amp;tr=udp%3A%2F%2Ftracker.coppersurfer.tk%3A6969&amp;tr=udp%3A%2F%2Fexodus.desync.com%3A6969","seeders":6,"leechers":3,"uploader":"movieZ.freak","files":5,"time":1394981355,"description":"SOURCE: Inventing The Abbotts 1997 720p HDTV HDCL\n\n\n &lt;a href=&quot;\nhttp://www.imdb.com/title/tt0119381/&quot; rel=&quot;nofollow&quot; target=&quot;_NEW&quot;&gt;\nhttp://www.imdb.com/title/tt0119381/&lt;/a&gt;\n\n\n &lt;a href=&quot;\nhttp://www.rottentomatoes.com/m/inventing_the_abbotts/&quot; rel=&quot;nofollow&quot; target=&quot;_NEW&quot;&gt;\nhttp://www.rottentomatoes.com/m/inventing_the_abbotts/&lt;/a&gt;\n\n\n &lt;a href=&quot;\nhttp://en.wikipedia.org/wiki/Inventing_the_Abbotts&quot; rel=&quot;nofollow&quot; target=&quot;_NEW&quot;&gt;\nhttp://en.wikipedia.org/wiki/Inventing_the_Abbotts&lt;/a&gt;\n\n\n\n\n- SAMPLE: Yes\n\n\n- SUBTITLE: English\n\n\n- LANGUAGE / AUDIO: English\n\n\n\n\nSCREENSHOTS:\n-------------------    &lt;a href=&quot;\nhttp://someimage.com/v3tC&quot; rel=&quot;nofollow&quot; target=&quot;_NEW&quot;&gt;\nhttp://someimage.com/v3tC&lt;/a&gt;\n\n\n\nDIRECTOR: Pat O'Connor\n\n\n\nCAST: Joaquin Phoenix, Liv Tyler, Billy Crudup, Kathy Baker, Jennifer Connelly, Will Patton, Joanna Going, Alessandro Nivola, Barbara Williams,...\n\n- Michael Keaton (Narrator)\n\n\nPLOT:\n-----------\nThe lives of two closely linked, small town Illinois families dangerously intersect in this domestic drama set in the 1950s, based on a short story by Sue\nMiller and directed by Pat O'Connor. Though they are from the wrong side of the tracks, the working class brothers Jacey (Billy Crudup) and Doug Holt (Joaquin Phoenix) are in love with the wealthy and beautiful Abbott sisters. Shy and quiet Doug, who worships his womanizing brother, has eyes for the iconoclastic Pam (Liv Tyler), but Jacey's affections are more calculating; he's interested in whichever Abbott sister is interested in him. At first, this is Eleanor (Jennifer Connelly), the &quot;wild&quot; sister, but eventually Jacey sets his sights on the divorced oldest sister, Alice (Joanna Going). For Jacey, his conquest of the Abbotts is a form of economic revenge, as he believes that the head of the family, Lloyd (Will Patton), stole a patent that made him rich from the Holts' late father. When he's eventually revealed as an embittered cad, Jacey's mistreatment of the Abbott girls makes the genuine affection between Doug and Pam impossible for either family to accept.\n\n\n************************************\n\n- Duration: 1h 46mn\n\n- Bit rate: 1448 Kbps\n\n- Res: 854 x 478\n\n- AR: 16:9\n\n- FPS: 23.976 fps\n\n- Audio: AC3, 2 channels, 128Kbps\n\n************************************\n\n\nGeneral\n-------------\nFormat : AVI\nFormat/Info : Audio Video Interleave\nFile size : 1.18 GiB\nDuration : 1h 46mn\nOverall bit rate : 1586 Kbps\nWriting library : VirtualDub build 35491\n\n\nVideo\n------------\nFormat : MPEG-4 Visual\nFormat profile : Advanced Simple@L5\nFormat settings, BVOP : 2\nFormat settings, QPel : No\nFormat settings, GMC : No warppoints\nFormat settings, Matrix : Default (H.263)\nCodec ID : XVID\nCodec ID/Hint : XviD\nDuration : 1h 46mn\nBit rate : 1448 Kbps\nWidth : 854 pixels\nHeight : 478 pixels\nDisplay aspect ratio : 16:9\nFrame rate : 23.976 fps\nColor space : YUV\nChroma subsampling : 4:2:0\nBit depth : 8 bits\nScan type : Progressive\nCompression mode : Lossy\nBits/(Pixel*Frame) : 0.148\nStream size : 1.08 GiB (91%)\nWriting library : XviD 65\n\n\nAudio\n------------\nFormat : AC-3\nFormat/Info : Audio Coding 3\nMode extension : CM (complete main)\nFormat settings, Endianness : Big\nCodec ID : 2000\nDuration : 1h 46mn\nBit rate mode : Constant\nBit rate : 128 Kbps\nChannel(s) : 2 channels\nChannel positions : Front: L R\nSampling rate : 48.0 KHz\nBit depth : 16 bits\nCompression mode : Lossy\nStream size : 97.9 MiB (8%)\nAlignment : Aligned on interleaves\nInterleave, duration : 42 ms (1.00 video frame)\nInterleave, preload duration : 512 ms","torrent":{"xt":"urn:btih:79ce05afb1ae0252cec746b86b1a3411563d4d45","amp;dn":"Inventing+the+Abbotts+1997+480p+HDRip+XviD+titler","amp;tr":["udp%3A%2F%2Ftracker.openbittorrent.com%3A80","udp%3A%2F%2Fopen.demonii.com%3A1337","udp%3A%2F%2Ftracker.coppersurfer.tk%3A6969","udp%3A%2F%2Fexodus.desync.com%3A6969"],"infoHash":"79ce05afb1ae0252cec746b86b1a3411563d4d45","infoHashBuffer":{"type":"Buffer","data":[121,206,5,175,177,174,2,82,206,199,70,184,107,26,52,17,86,61,77,69]},"announce":[],"urlList":[]}}